<?xml version="1.0" standalone="no"?>
<!DOCTYPE svg PUBLIC "-//W3C//DTD SVG 20010904//EN"
 "http://www.w3.org/TR/2001/REC-SVG-20010904/DTD/svg10.dtd">
<svg version="1.0" xmlns="http://www.w3.org/2000/svg"
 width="100.000000pt" height="100.000000pt" viewBox="0 0 100.000000 100.000000"
 preserveAspectRatio="xMidYMid meet">
<metadata>
Created by potrace 1.14, written by Peter Selinger 2001-2017
</metadata>
<g transform="translate(0.000000,100.000000) scale(0.100000,-0.100000)"
fill="#000000" stroke="none">
<path d="M145 948 c-3 -7 -4 -213 -3 -458 l3 -445 272 -3 271 -2 86 86 86 86
-2 371 -3 372 -353 3 c-277 2 -354 0 -357 -10z m371 -79 c10 -17 -13 -36 -27
-22 -12 12 -4 33 11 33 5 0 12 -5 16 -11z m244 -348 l0 -280 -47 -3 -48 -3 -3
-47 -3 -48 -210 0 -209 0 0 330 0 330 260 0 260 0 0 -279z m-12 -366 c-24 -25
-44 -45 -45 -45 -2 0 -3 20 -3 45 l0 45 45 0 46 0 -43 -45z"/>
</g>
</svg>
